<svg width="30" height="30" viewBox="0 0 30 30" fill="none" xmlns="http://www.w3.org/2000/svg">
<path d="M25.6066 4.39336C22.7735 1.56029 19.0066 0 15 0C10.9933 0 7.22643 1.56029 4.39336 4.39336C1.56023 7.22648 0 10.9934 0 15C0 19.0066 1.56023 22.7735 4.39336 25.6066C7.22648 28.4397 10.9933 30 15 30C19.0066 30 22.7735 28.4397 25.6066 25.6066C28.4397 22.7735 30 19.0066 30 15C30 10.9934 28.4397 7.22654 25.6066 4.39336ZM15 28.2422C7.69822 28.2422 1.75781 22.3018 1.75781 15C1.75781 7.69822 7.69822 1.75781 15 1.75781C22.3018 1.75781 28.2422 7.69822 28.2422 15C28.2422 22.3018 22.3018 28.2422 15 28.2422Z" fill="#396174"/>
<path d="M22.1663 10.1871C21.8231 9.84393 21.2666 9.84393 20.9234 10.1871L13.1621 17.9484L9.07655 13.8628C8.73337 13.5196 8.17685 13.5196 7.8336 13.8628C7.49036 14.206 7.49036 14.7625 7.8336 15.1058L12.5406 19.8128C12.7122 19.9844 12.9372 20.0702 13.1621 20.0702C13.3869 20.0702 13.6119 19.9843 13.7835 19.8128L22.1663 11.43C22.5095 11.0868 22.5095 10.5303 22.1663 10.1871Z" fill="#396174"/>
</svg>
