<svg width="65" height="44" viewBox="0 0 65 44" fill="none" xmlns="http://www.w3.org/2000/svg">
<path d="M52.396 17.2358H59.691V23.2791H52.396V17.2358Z" fill="#42C5CA"/>
<path d="M39.3892 17.2358H46.6841V23.2791H39.3892V17.2358Z" fill="#42C5CA"/>
<path d="M56.7827 17.2358H59.691V23.2791H56.7827V17.2358Z" fill="#42C5CA"/>
<path d="M43.7759 17.2358H46.6841V23.2791H43.7759V17.2358Z" fill="#42C5CA"/>
<path d="M62.7789 34.9918H23.2939C22.5928 34.9918 22.0244 34.4234 22.0244 33.7223V23.3619C22.0244 22.6607 22.5928 22.0923 23.2939 22.0923H62.7789C63.4801 22.0923 64.0484 22.6607 64.0484 23.3619V33.7223C64.0484 34.4233 63.4801 34.9918 62.7789 34.9918Z" fill="#42C5CA"/>
<path d="M62.7796 22.0923H60.4046V30.0793C60.4046 30.7801 59.8365 31.3481 59.1359 31.3481H22.0244V33.723C22.0244 34.4238 22.5925 34.9918 23.2932 34.9918H62.7796C63.4803 34.9918 64.0483 34.4237 64.0483 33.723V23.3612C64.0483 22.6603 63.4803 22.0923 62.7796 22.0923Z" fill="#42C5CA"/>
<path d="M41.706 42.2028H2.22119C1.52003 42.2028 0.95166 41.6345 0.95166 40.9333V17.6735C0.95166 16.9723 1.52003 16.4039 2.22119 16.4039H41.7062C42.4073 16.4039 42.9757 16.9723 42.9757 17.6735V40.9333C42.9756 41.6345 42.4072 42.2028 41.706 42.2028Z" fill="#9CB0B9"/>
<path d="M41.7068 16.4039H39.4016V37.3601C39.4016 38.0609 38.8335 38.6289 38.1328 38.6289H0.95166V40.9339C0.95166 41.6347 1.51978 42.2027 2.22043 42.2027H41.7068C42.4076 42.2027 42.9756 41.6346 42.9756 40.9339V17.6728C42.9756 16.972 42.4076 16.4039 41.7068 16.4039Z" fill="#9CB0B9"/>
<path d="M9.53682 27.5511C11.5835 27.5511 13.2426 25.892 13.2426 23.8454C13.2426 21.7987 11.5835 20.1396 9.53682 20.1396C7.49018 20.1396 5.83105 21.7987 5.83105 23.8454C5.83105 25.892 7.49018 27.5511 9.53682 27.5511Z" fill="#9CB0B9"/>
<path d="M9.53682 38.593C11.5835 38.593 13.2426 36.9339 13.2426 34.8873C13.2426 32.8406 11.5835 31.1815 9.53682 31.1815C7.49018 31.1815 5.83105 32.8406 5.83105 34.8873C5.83105 36.9339 7.49018 38.593 9.53682 38.593Z" fill="#9CB0B9"/>
<path d="M21.9636 27.5511C24.0102 27.5511 25.6693 25.892 25.6693 23.8454C25.6693 21.7987 24.0102 20.1396 21.9636 20.1396C19.9169 20.1396 18.2578 21.7987 18.2578 23.8454C18.2578 25.892 19.9169 27.5511 21.9636 27.5511Z" fill="#9CB0B9"/>
<path d="M21.9636 38.593C24.0102 38.593 25.6693 36.9339 25.6693 34.8873C25.6693 32.8406 24.0102 31.1815 21.9636 31.1815C19.9169 31.1815 18.2578 32.8406 18.2578 34.8873C18.2578 36.9339 19.9169 38.593 21.9636 38.593Z" fill="#9CB0B9"/>
<path d="M34.3903 27.5511C36.437 27.5511 38.0961 25.892 38.0961 23.8454C38.0961 21.7987 36.437 20.1396 34.3903 20.1396C32.3437 20.1396 30.6846 21.7987 30.6846 23.8454C30.6846 25.892 32.3437 27.5511 34.3903 27.5511Z" fill="#9CB0B9"/>
<path d="M34.3903 38.593C36.437 38.593 38.0961 36.9339 38.0961 34.8873C38.0961 32.8406 36.437 31.1815 34.3903 31.1815C32.3437 31.1815 30.6846 32.8406 30.6846 34.8873C30.6846 36.9339 32.3437 38.593 34.3903 38.593Z" fill="#9CB0B9"/>
<path d="M10.9555 20.4214C11.137 20.8585 11.2375 21.3377 11.2375 21.8404C11.2375 23.887 9.57836 25.5462 7.53175 25.5462C7.02901 25.5462 6.54989 25.4456 6.11279 25.2642C6.66974 26.6066 7.99272 27.551 9.53659 27.551C11.5832 27.551 13.2424 25.8919 13.2424 23.8452C13.2424 22.3014 12.2979 20.9785 10.9555 20.4214Z" fill="#9CB0B9"/>
<path d="M10.9555 31.4633C11.137 31.9004 11.2375 32.3795 11.2375 32.8822C11.2375 34.9288 9.57836 36.588 7.53175 36.588C7.02901 36.588 6.54989 36.4874 6.11279 36.306C6.66974 37.6484 7.99272 38.5928 9.53659 38.5928C11.5832 38.5928 13.2424 36.9337 13.2424 34.8871C13.2424 33.3432 12.2979 32.0203 10.9555 31.4633Z" fill="#9CB0B9"/>
<path d="M23.3828 20.4214C23.5642 20.8585 23.6648 21.3377 23.6648 21.8404C23.6648 23.887 22.0056 25.5462 19.959 25.5462C19.4563 25.5462 18.9771 25.4456 18.54 25.2642C19.097 26.6066 20.42 27.551 21.9638 27.551C24.0105 27.551 25.6696 25.8919 25.6696 23.8452C25.6696 22.3014 24.7252 20.9785 23.3828 20.4214Z" fill="#9CB0B9"/>
<path d="M23.3828 31.4633C23.5642 31.9004 23.6648 32.3795 23.6648 32.8822C23.6648 34.9288 22.0056 36.588 19.959 36.588C19.4563 36.588 18.9771 36.4874 18.54 36.306C19.097 37.6484 20.42 38.5928 21.9638 38.5928C24.0105 38.5928 25.6696 36.9337 25.6696 34.8871C25.6696 33.3432 24.7252 32.0203 23.3828 31.4633Z" fill="#9CB0B9"/>
<path d="M35.8095 20.4214C35.991 20.8585 36.0915 21.3377 36.0915 21.8404C36.0915 23.887 34.4324 25.5462 32.3858 25.5462C31.883 25.5462 31.4039 25.4456 30.9668 25.2642C31.5237 26.6066 32.8467 27.551 34.3906 27.551C36.4372 27.551 38.0964 25.8919 38.0964 23.8452C38.0964 22.3014 37.1519 20.9785 35.8095 20.4214Z" fill="#9CB0B9"/>
<path d="M35.8095 31.4633C35.991 31.9004 36.0915 32.3795 36.0915 32.8822C36.0915 34.9288 34.4324 36.588 32.3858 36.588C31.883 36.588 31.4039 36.4874 30.9668 36.306C31.5237 37.6484 32.8467 38.5928 34.3907 38.5928C36.4373 38.5928 38.0965 36.9337 38.0965 34.8871C38.0964 33.3432 37.1519 32.0203 35.8095 31.4633Z" fill="#9CB0B9"/>
<path d="M62.7796 19.3482C64.0039 19.3482 65 18.3521 65 17.1278V6.76584C65 5.5415 64.0039 4.54543 62.7796 4.54543H60.6426V2.22041C60.6426 0.996074 59.6465 0 58.4222 0H53.6649C52.4405 0 51.4445 0.996074 51.4445 2.22041V4.54543H47.6355V2.22041C47.6355 0.996074 46.6394 0 45.4151 0H40.6578C39.4334 0 38.4373 0.996074 38.4373 2.22041V4.54543H34.6284V2.22041C34.6284 0.996074 33.6323 0 32.408 0H27.6506C26.4263 0 25.4302 0.996074 25.4302 2.22041V4.54543H23.2932C22.0689 4.54543 21.0728 5.5415 21.0728 6.76584V15.4522H2.22041C0.996074 15.4522 0 16.4483 0 17.6726V40.9339C0 42.1582 0.996074 43.1543 2.22041 43.1543H41.7068C42.9311 43.1543 43.9272 42.1582 43.9272 40.9339V35.9432H53.3851C53.9106 35.9432 54.3367 35.5172 54.3367 34.9916C54.3367 34.466 53.9106 34.0399 53.3851 34.0399H43.9272V23.0438H62.7796C62.9545 23.0438 63.0968 23.1861 63.0968 23.361V33.7228C63.0968 33.8978 62.9545 34.0401 62.7796 34.0401H58.0155C57.49 34.0401 57.0639 34.4661 57.0639 34.9917C57.0639 35.5173 57.49 35.9434 58.0155 35.9434H62.7796C64.0039 35.9434 65 34.9473 65 33.7229V23.3612C65 22.1368 64.0039 21.1407 62.7796 21.1407H60.6426V19.3482H62.7796ZM53.3477 2.22041C53.3477 2.04547 53.49 1.90315 53.665 1.90315H58.4223C58.5972 1.90315 58.7396 2.04547 58.7396 2.22041V4.54543H53.3477V2.22041ZM40.3405 2.22041C40.3405 2.04547 40.4828 1.90315 40.6578 1.90315H45.4151C45.59 1.90315 45.7323 2.04547 45.7323 2.22041V4.54543H40.3405V2.22041ZM27.3334 2.22041C27.3334 2.04547 27.4757 1.90315 27.6506 1.90315H32.408C32.5829 1.90315 32.7252 2.04547 32.7252 2.22041V4.54543H27.3334V2.22041ZM22.9761 6.76584C22.9761 6.5909 23.1184 6.44858 23.2934 6.44858H62.7796C62.9545 6.44858 63.0968 6.5909 63.0968 6.76584V17.1278C63.0968 17.3027 62.9545 17.445 62.7796 17.445H43.9155C43.8011 16.3273 42.8542 15.4524 41.7068 15.4524H22.9761V6.76584ZM51.4445 19.3482V21.1407H47.6355V19.3482H51.4445ZM42.024 40.934C42.024 41.1089 41.8817 41.2513 41.7068 41.2513H2.22041C2.04547 41.2513 1.90315 41.1089 1.90315 40.934V17.6726C1.90315 17.4977 2.04547 17.3554 2.22041 17.3554H41.7068C41.8817 17.3554 42.024 17.4977 42.024 17.6726V40.934ZM43.9272 19.3482H45.7323V21.1407H43.9272V19.3482ZM58.7394 21.1407H53.3476V19.3482H58.7394V21.1407Z" fill="#083A51"/>
<path d="M9.5368 19.1879C6.96866 19.1879 4.87939 21.2772 4.87939 23.8453C4.87939 26.4135 6.96866 28.5027 9.5368 28.5027C12.1049 28.5027 14.1942 26.4135 14.1942 23.8453C14.1941 21.2772 12.1048 19.1879 9.5368 19.1879ZM9.5368 26.5996C8.01806 26.5996 6.78255 25.3641 6.78255 23.8453C6.78255 22.3267 8.01806 21.0912 9.5368 21.0912C11.0554 21.0912 12.2909 22.3267 12.2909 23.8453C12.2909 25.3639 11.0554 26.5996 9.5368 26.5996Z" fill="#083A51"/>
<path d="M9.5368 30.2299C6.96866 30.2299 4.87939 32.3191 4.87939 34.8873C4.87939 36.3393 5.53866 37.6825 6.6881 38.5721C7.10361 38.8938 7.70131 38.8175 8.02301 38.402C8.34471 37.9864 8.26854 37.3886 7.85289 37.067C7.17268 36.5406 6.78255 35.7461 6.78255 34.8873C6.78255 33.3686 8.01806 32.1331 9.5368 32.1331C11.0554 32.1331 12.2909 33.3686 12.2909 34.8873C12.2909 35.754 11.895 36.5529 11.2047 37.0792C10.7868 37.3979 10.7063 37.9951 11.0249 38.4129C11.2122 38.6585 11.4956 38.7875 11.7823 38.7875C11.9836 38.7875 12.1863 38.7239 12.3586 38.5925C13.525 37.7031 14.1941 36.3526 14.1941 34.8871C14.1941 32.3191 12.1048 30.2299 9.5368 30.2299Z" fill="#083A51"/>
<path d="M21.9636 30.2299C19.3954 30.2299 17.3062 32.3191 17.3062 34.8873C17.3062 37.4554 19.3954 39.5447 21.9636 39.5447C24.5317 39.5447 26.621 37.4554 26.621 34.8873C26.6211 32.3191 24.5317 30.2299 21.9636 30.2299ZM21.9636 37.6415C20.4449 37.6415 19.2094 36.406 19.2094 34.8873C19.2094 33.3686 20.4449 32.1331 21.9636 32.1331C23.4823 32.1331 24.7178 33.3686 24.7178 34.8873C24.7178 36.4059 23.4823 37.6415 21.9636 37.6415Z" fill="#083A51"/>
<path d="M34.3908 19.1879C31.8227 19.1879 29.7334 21.2772 29.7334 23.8453C29.7334 26.4135 31.8227 28.5027 34.3908 28.5027C36.9589 28.5027 39.0482 26.4135 39.0482 23.8453C39.0481 21.2772 36.9588 19.1879 34.3908 19.1879ZM34.3908 26.5996C32.8721 26.5996 31.6366 25.3641 31.6366 23.8453C31.6366 22.3267 32.8721 21.0912 34.3908 21.0912C35.9094 21.0912 37.1449 22.3267 37.1449 23.8453C37.1449 25.3639 35.9094 26.5996 34.3908 26.5996Z" fill="#083A51"/>
<path d="M34.3908 30.2299C31.8227 30.2299 29.7334 32.3191 29.7334 34.8873C29.7334 37.4554 31.8227 39.5447 34.3908 39.5447C36.9589 39.5447 39.0482 37.4554 39.0482 34.8873C39.0481 32.3191 36.9588 30.2299 34.3908 30.2299ZM34.3908 37.6415C32.8721 37.6415 31.6366 36.406 31.6366 34.8873C31.6366 33.3686 32.8721 32.1331 34.3908 32.1331C35.9094 32.1331 37.1449 33.3686 37.1449 34.8873C37.1449 36.4059 35.9094 37.6415 34.3908 37.6415Z" fill="#083A51"/>
<path d="M21.9637 19.1879C21.2388 19.1879 20.5438 19.3502 19.8979 19.6702C19.4271 19.9036 19.2345 20.4745 19.4678 20.9453C19.7012 21.4162 20.2719 21.6089 20.7429 21.3755C21.1237 21.1868 21.5345 21.0911 21.9637 21.0911C23.4825 21.0911 24.718 22.3266 24.718 23.8452C24.718 25.3639 23.4825 26.5994 21.9637 26.5994C20.6131 26.5994 19.4424 25.5946 19.2407 24.2621C19.162 23.7425 18.6774 23.3845 18.1574 23.4637C17.6378 23.5424 17.2803 24.0274 17.359 24.547C17.7004 26.8021 19.68 28.5027 21.9637 28.5027C24.5319 28.5027 26.6211 26.4135 26.6211 23.8453C26.6213 21.2772 24.5319 19.1879 21.9637 19.1879Z" fill="#083A51"/>
</svg>
