<svg width="50" height="70" viewBox="0 0 50 70" fill="none" xmlns="http://www.w3.org/2000/svg">
<rect x="1.23592" y="0.713325" width="44.4916" height="8.39652" rx="4.19826" transform="matrix(0.968202 -0.250171 0.267721 0.963496 1.51825 17.9763)" stroke="#396174" stroke-width="2"/>
<path d="M15.732 13.7619C14.9927 11.1013 16.5608 8.38441 19.2344 7.69358L26.3138 5.86435C28.9874 5.17352 31.7541 6.77035 32.4934 9.43097L32.7826 10.4716L16.0211 14.8025L15.732 13.7619Z" stroke="#396174" stroke-width="2"/>
<path d="M7.95337 29.5185H45.3851V63C45.3851 66.3137 42.6988 69 39.3851 69H13.9534C10.6397 69 7.95337 66.3137 7.95337 63V29.5185Z" stroke="#396174" stroke-width="2"/>
<rect x="16.9907" y="37.5062" width="2.15082" height="24.1975" rx="1.07541" fill="#396174"/>
<rect x="25.594" y="37.5062" width="2.15082" height="24.1975" rx="1.07541" fill="#396174"/>
<rect x="34.1973" y="37.5062" width="2.15082" height="24.1975" rx="1.07541" fill="#396174"/>
</svg>
