<svg width="51" height="50" viewBox="0 0 51 50" fill="none" xmlns="http://www.w3.org/2000/svg">
<g opacity="0.2">
<path opacity="0.2" d="M27.3438 0.78125V8.59375C27.3438 9.45312 28.0469 10.1562 28.9062 10.1562H36.7188V8.59375L28.9062 0.78125H27.3438Z" fill="#6B8997"/>
</g>
<path d="M28.9062 0.78125V8.59375H36.7188L28.9062 0.78125Z" fill="#083A51"/>
<path d="M48.9846 39.5313C47.8127 45.8594 41.719 50 35.3909 48.9063C29.0627 47.7344 24.9221 41.6406 26.0159 35.3125C27.1877 28.9844 33.2034 24.8438 39.5315 25.9375C45.9377 27.1094 50.1565 33.125 48.9846 39.5313Z" fill="#42C5CA"/>
<path d="M33.5937 42.1875C33.3594 42.1875 33.2031 42.1094 33.0469 41.9531L29.9219 38.8281C29.6094 38.5156 29.6094 38.0469 29.9219 37.7344C30.2344 37.4219 30.7031 37.4219 31.0156 37.7344L33.5937 40.3125L42.5 31.5625C42.8125 31.25 43.2812 31.25 43.5937 31.5625C43.9062 31.875 43.9062 32.3437 43.5937 32.6562L34.1406 41.9531C33.9844 42.1094 33.8281 42.1875 33.5937 42.1875Z" fill="#083A51"/>
<path d="M9.375 7.8125C8.90625 7.8125 8.59375 8.125 8.59375 8.59375C8.59375 9.0625 8.90625 9.375 9.375 9.375H10.1562C10.625 9.375 10.9375 9.0625 10.9375 8.59375C10.9375 8.125 10.625 7.8125 10.1562 7.8125H9.375Z" fill="#083A51"/>
<path d="M12.5 7.8125C12.0312 7.8125 11.7188 8.125 11.7188 8.59375C11.7188 9.0625 12.0312 9.375 12.5 9.375H13.2812C13.75 9.375 14.0625 9.0625 14.0625 8.59375C14.0625 8.125 13.75 7.8125 13.2812 7.8125H12.5Z" fill="#083A51"/>
<path d="M6.25 9.375H7.03125C7.5 9.375 7.8125 9.0625 7.8125 8.59375C7.8125 8.125 7.5 7.8125 7.03125 7.8125H6.25C5.78125 7.8125 5.46875 8.125 5.46875 8.59375C5.46875 9.0625 5.78125 9.375 6.25 9.375Z" fill="#083A51"/>
<path d="M22.6562 32.0312H21.875C21.4062 32.0312 21.0938 32.3437 21.0938 32.8125C21.0938 33.2812 21.4062 33.5938 21.875 33.5938H22.6562C23.125 33.5938 23.4375 33.2812 23.4375 32.8125C23.4375 32.3437 23.125 32.0312 22.6562 32.0312Z" fill="#083A51"/>
<path d="M19.5312 33.5938C20 33.5938 20.3125 33.2812 20.3125 32.8125C20.3125 32.3437 20 32.0312 19.5312 32.0312H18.75C18.2812 32.0312 17.9688 32.3437 17.9688 32.8125C17.9688 33.2812 18.2812 33.5938 18.75 33.5938H19.5312Z" fill="#083A51"/>
<path d="M21.0938 43.75H6.25C5.78125 43.75 5.46875 44.0625 5.46875 44.5312C5.46875 45 5.78125 45.3125 6.25 45.3125H21.0938C21.5625 45.3125 21.875 45 21.875 44.5312C21.875 44.0625 21.5625 43.75 21.0938 43.75Z" fill="#083A51"/>
<path d="M6.25 6.25H16.4062C16.875 6.25 17.1875 5.9375 17.1875 5.46875C17.1875 5 16.875 4.6875 16.4062 4.6875H6.25C5.78125 4.6875 5.46875 5 5.46875 5.46875C5.46875 5.9375 5.78125 6.25 6.25 6.25Z" fill="#083A51"/>
<path d="M6.25 14.8438H31.25C31.7188 14.8438 32.0312 14.5312 32.0312 14.0625C32.0312 13.5937 31.7188 13.2812 31.25 13.2812H6.25C5.78125 13.2812 5.46875 13.5937 5.46875 14.0625C5.46875 14.5312 5.78125 14.8438 6.25 14.8438Z" fill="#083A51"/>
<path d="M6.25 17.9688H31.25C31.7188 17.9688 32.0312 17.6562 32.0312 17.1875C32.0312 16.7187 31.7188 16.4062 31.25 16.4062H6.25C5.78125 16.4062 5.46875 16.7187 5.46875 17.1875C5.46875 17.6562 5.78125 17.9688 6.25 17.9688Z" fill="#083A51"/>
<path d="M6.25 21.0938H31.25C31.7188 21.0938 32.0312 20.7812 32.0312 20.3125C32.0312 19.8437 31.7188 19.5312 31.25 19.5312H6.25C5.78125 19.5312 5.46875 19.8437 5.46875 20.3125C5.46875 20.7812 5.78125 21.0938 6.25 21.0938Z" fill="#083A51"/>
<path d="M6.25 24.2188H31.25C31.7188 24.2188 32.0312 23.9062 32.0312 23.4375C32.0312 22.9687 31.7188 22.6562 31.25 22.6562H6.25C5.78125 22.6562 5.46875 22.9687 5.46875 23.4375C5.46875 23.9062 5.78125 24.2188 6.25 24.2188Z" fill="#083A51"/>
<path d="M6.25 27.3438H28.125C28.5938 27.3438 28.9062 27.0312 28.9062 26.5625C28.9062 26.0937 28.5938 25.7812 28.125 25.7812H6.25C5.78125 25.7812 5.46875 26.0937 5.46875 26.5625C5.46875 27.0312 5.78125 27.3438 6.25 27.3438Z" fill="#083A51"/>
<path d="M25.7812 29.6875C25.7812 29.2187 25.4688 28.9062 25 28.9062H6.25C5.78125 28.9062 5.46875 29.2187 5.46875 29.6875C5.46875 30.1562 5.78125 30.4688 6.25 30.4688H25C25.4688 30.4688 25.7812 30.1562 25.7812 29.6875Z" fill="#083A51"/>
<path d="M6.25 33.5938H16.4062C16.875 33.5938 17.1875 33.2812 17.1875 32.8125C17.1875 32.3437 16.875 32.0312 16.4062 32.0312H6.25C5.78125 32.0312 5.46875 32.3437 5.46875 32.8125C5.46875 33.2812 5.78125 33.5938 6.25 33.5938Z" fill="#083A51"/>
<path d="M22.6562 35.1562H6.25C5.78125 35.1562 5.46875 35.4687 5.46875 35.9375C5.46875 36.4062 5.78125 36.7188 6.25 36.7188H22.6562C23.125 36.7188 23.4375 36.4062 23.4375 35.9375C23.4375 35.4687 23.125 35.1562 22.6562 35.1562Z" fill="#083A51"/>
<path d="M22.6562 38.2812H6.25C5.78125 38.2812 5.46875 38.5937 5.46875 39.0625C5.46875 39.5312 5.78125 39.8438 6.25 39.8438H22.6562C23.125 39.8438 23.4375 39.5312 23.4375 39.0625C23.4375 38.5937 23.125 38.2812 22.6562 38.2812Z" fill="#083A51"/>
<path d="M39.7656 25.1562C38.9844 25.0781 38.2031 25 37.5 25V8.59375C37.5 8.35938 37.4219 8.125 37.2656 7.96875L29.4531 0.15625C29.2969 0 29.1406 0 28.9062 0H0.78125C0.3125 0 0 0.3125 0 0.78125V49.2188C0 49.6875 0.3125 50 0.78125 50H37.5781C40.1562 50 42.5781 49.2188 44.6875 47.7344C50.3125 43.75 51.7188 35.9375 47.7344 30.3125C45.7812 27.5781 42.9688 25.7812 39.7656 25.1562ZM29.6875 2.65625L34.8438 7.8125H29.6875V2.65625ZM1.5625 1.5625H28.125V8.59375C28.125 9.0625 28.4375 9.375 28.9062 9.375H35.9375V25C30.5469 25.7031 26.25 30 25.3125 35.3125C24.375 40.5469 26.6406 45.8594 31.25 48.4375H1.5625V1.5625ZM48.2812 39.375C47.8125 42.2656 46.1719 44.7656 43.8281 46.4062C41.4844 48.0469 38.5156 48.75 35.7031 48.2031C29.6875 47.1094 25.7813 41.4062 26.875 35.4688C27.4219 32.6562 28.9844 30.1562 31.3281 28.5156C33.125 27.2656 35.3125 26.5625 37.5 26.5625C43.5938 26.5625 48.4375 31.4063 48.4375 37.4219C48.4375 38.0469 48.3594 38.75 48.2812 39.375Z" fill="#083A51"/>
</svg>
