<svg width="50" height="50" viewBox="0 0 50 50" fill="none" xmlns="http://www.w3.org/2000/svg">
<path d="M25 0C11.2152 0 0 11.2152 0 25C0 38.7848 11.2152 50 25 50C38.7859 50 50 38.7848 50 25C50 11.2152 38.7859 0 25 0ZM25 47.8261C12.413 47.8261 2.17391 37.587 2.17391 25C2.17391 12.413 12.413 2.17391 25 2.17391C37.5859 2.17391 47.8261 12.413 47.8261 25C47.8261 37.587 37.5859 47.8261 25 47.8261Z" fill="#B00020"/>
<path d="M19.5652 20.6522C19.5652 18.8543 18.1022 17.3913 16.3043 17.3913C14.5065 17.3913 13.0435 18.8543 13.0435 20.6522C13.0435 22.45 14.5065 23.913 16.3043 23.913C18.1022 23.913 19.5652 22.45 19.5652 20.6522ZM15.2174 20.6522C15.2174 20.0533 15.7054 19.5652 16.3043 19.5652C16.9032 19.5652 17.3913 20.0533 17.3913 20.6522C17.3913 21.2511 16.9032 21.7391 16.3043 21.7391C15.7054 21.7391 15.2174 21.2511 15.2174 20.6522Z" fill="#B00020"/>
<path d="M33.6957 17.3913C31.8979 17.3913 30.4348 18.8543 30.4348 20.6522C30.4348 22.45 31.8979 23.913 33.6957 23.913C35.4935 23.913 36.9565 22.45 36.9565 20.6522C36.9565 18.8543 35.4935 17.3913 33.6957 17.3913ZM33.6957 21.7391C33.0957 21.7391 32.6087 21.2511 32.6087 20.6522C32.6087 20.0533 33.0957 19.5652 33.6957 19.5652C34.2957 19.5652 34.7826 20.0533 34.7826 20.6522C34.7826 21.2511 34.2957 21.7391 33.6957 21.7391Z" fill="#B00020"/>
<path d="M25.0001 30.4348C20.9479 30.4348 17.087 32.1511 14.4077 35.1446C14.0077 35.5924 14.0457 36.2793 14.4924 36.6793C14.9403 37.0804 15.6272 37.0413 16.0272 36.5946C18.2946 34.0609 21.5653 32.6087 25.0001 32.6087C28.4348 32.6087 31.7055 34.0609 33.9729 36.5946C34.187 36.8348 34.4848 36.9565 34.7827 36.9565C35.0403 36.9565 35.3011 36.8652 35.5077 36.6793C35.9544 36.2793 35.9924 35.5924 35.5924 35.1446C32.9131 32.1522 29.0533 30.4348 25.0001 30.4348Z" fill="#B00020"/>
</svg>
