<svg width="54" height="65" viewBox="0 0 54 65" fill="none" xmlns="http://www.w3.org/2000/svg">
<path fill-rule="evenodd" clip-rule="evenodd" d="M52.8967 14.8841L38.8847 0.324199C38.6852 0.11709 38.41 0 38.1225 0H17.2387C14.9015 0 13 1.90072 13 4.23693V40H15.1154V4.23693C15.1154 3.067 16.0679 2.11535 17.2387 2.11535H36.2692V15.8654C36.2692 16.4495 36.7428 16.923 37.3269 16.923H51.0769V50.7728C51.0769 51.9373 50.1244 52.8847 48.9536 52.8847H25.5L25 55H48.9537C51.2909 55 53.1923 53.1037 53.1923 50.7728V15.6175C53.1923 15.344 53.0863 15.0812 52.8967 14.8841ZM38.3847 2.85538L49.8873 14.8077H38.3847V2.85538Z" fill="#B00020"/>
<circle cx="13" cy="52" r="12" stroke="#B00020" stroke-width="2"/>
<rect x="7.02075" y="47.4142" width="2" height="15" rx="1" transform="rotate(-45 7.02075 47.4142)" fill="#B00020"/>
<rect width="2" height="15" rx="1" transform="matrix(-0.707107 -0.707107 -0.707107 0.707107 19.0208 47.4142)" fill="#B00020"/>
</svg>
