<svg width="32" height="32" viewBox="0 0 32 32" fill="none" xmlns="http://www.w3.org/2000/svg">
<path d="M9.43022 13.084L6.68622 15.828C5.56091 16.9533 4.92871 18.4796 4.92871 20.071C4.92871 21.6624 5.56091 23.1887 6.68622 24.314C7.81153 25.4393 9.33778 26.0715 10.9292 26.0715C12.5207 26.0715 14.0469 25.4393 15.1722 24.314L18.8282 20.656C19.5068 19.9773 20.0127 19.1457 20.3034 18.2311C20.5941 17.3164 20.6612 16.3454 20.4989 15.3995C20.3367 14.4535 19.9499 13.5603 19.3711 12.7948C18.7922 12.0293 18.0382 11.4138 17.1722 11L16.0002 12.172C15.8812 12.2912 15.7777 12.4249 15.6922 12.57C16.3613 12.7623 16.9685 13.126 17.454 13.6249C17.9395 14.1239 18.2863 14.7409 18.4602 15.415C18.6341 16.089 18.6291 16.7968 18.4457 17.4684C18.2622 18.1399 17.9067 18.752 17.4142 19.244L13.7602 22.9C13.0097 23.6506 11.9917 24.0722 10.9302 24.0722C9.86876 24.0722 8.85078 23.6506 8.10022 22.9C7.34966 22.1494 6.92799 21.1315 6.92799 20.07C6.92799 19.0085 7.34966 17.9906 8.10022 17.24L9.68622 15.656C9.46245 14.8175 9.376 13.9482 9.43022 13.082V13.084Z" fill="#6B8997"/>
<path d="M11.4245 13.92L11.7585 13.586C12.254 13.0886 12.8723 12.7312 13.5505 12.55C13.7318 11.8717 14.0892 11.2535 14.5865 10.758L14.9205 10.424C13.9145 10.3674 12.9103 10.5648 12.0005 10.998C11.5605 11.918 11.3685 12.924 11.4245 13.918V13.92Z" fill="#6B8997"/>
<path d="M13.1721 9.34399C12.4935 10.0227 11.9876 10.8542 11.6969 11.7689C11.4062 12.6835 11.3391 13.6546 11.5014 14.6005C11.6636 15.5464 12.0504 16.4397 12.6292 17.2052C13.2081 17.9707 13.9621 18.5862 14.8281 19L16.3781 17.448C15.7 17.2661 15.0817 16.9089 14.5854 16.4124C14.089 15.9158 13.7321 15.2974 13.5505 14.6192C13.3689 13.9411 13.369 13.227 13.5508 12.5489C13.7326 11.8707 14.0896 11.2524 14.5861 10.756L18.2401 7.09999C18.9907 6.34943 20.0086 5.92776 21.0701 5.92776C22.1316 5.92776 23.1495 6.34943 23.9001 7.09999C24.6507 7.85055 25.0723 8.86853 25.0723 9.92999C25.0723 10.9914 24.6507 12.0094 23.9001 12.76L22.3141 14.344C22.5381 15.184 22.6241 16.054 22.5701 16.918L25.3141 14.174C26.4394 13.0487 27.0716 11.5224 27.0716 9.93099C27.0716 8.33955 26.4394 6.8133 25.3141 5.68799C24.1888 4.56268 22.6625 3.93048 21.0711 3.93048C19.4797 3.93048 17.9534 4.56268 16.8281 5.68799L13.1721 9.34399Z" fill="#6B8997"/>
<path d="M20.0001 19C20.4351 18.0907 20.6332 17.0863 20.5761 16.08L20.2421 16.414C19.7466 16.9113 19.1283 17.2687 18.4501 17.45C18.2688 18.1282 17.9114 18.7465 17.4141 19.242L17.0801 19.576C18.0861 19.6325 19.0903 19.4352 20.0001 19.002V19Z" fill="#6B8997"/>
</svg>
