<svg width="50" height="49" viewBox="0 0 50 49" fill="none" xmlns="http://www.w3.org/2000/svg">
<path d="M25.0002 0C24.1912 0 23.5354 0.633256 23.5354 1.41436V10.504C23.5354 11.2851 24.1912 11.9183 25.0002 11.9183C25.8092 11.9183 26.465 11.2851 26.465 10.504V1.41436C26.465 0.633256 25.8092 0 25.0002 0Z" fill="#396174"/>
<path d="M25.0002 36.3585C24.1912 36.3585 23.5354 36.9918 23.5354 37.7729V46.8624C23.5354 47.6435 24.1912 48.2767 25.0002 48.2767C25.8092 48.2767 26.465 47.6435 26.465 46.8624V37.7729C26.465 36.9917 25.8092 36.3585 25.0002 36.3585Z" fill="#396174"/>
<path d="M19.2082 11.6234L14.5012 3.75156C14.0967 3.07503 13.2008 2.84327 12.5002 3.23391C11.7996 3.62446 11.5596 4.48948 11.9641 5.16592L16.6711 13.0378C16.9424 13.4916 17.4348 13.7451 17.941 13.7451C18.1896 13.7451 18.4414 13.684 18.6721 13.5554C19.3727 13.1649 19.6127 12.2998 19.2082 11.6234Z" fill="#396174"/>
<path d="M38.0362 43.1107L33.3293 35.2391C32.9248 34.5625 32.0289 34.3308 31.3283 34.7214C30.6277 35.112 30.3877 35.977 30.7922 36.6534L35.4991 44.5251C35.7704 44.9789 36.2628 45.2325 36.769 45.2325C37.0176 45.2325 37.2694 45.1714 37.5001 45.0427C38.2007 44.6522 38.4407 43.7872 38.0362 43.1107Z" fill="#396174"/>
<path d="M13.5033 16.0964L5.35031 11.5515C4.64953 11.1608 3.75382 11.3926 3.34932 12.0692C2.94483 12.7456 3.18487 13.6106 3.88546 14.0012L12.0384 18.5462C12.2691 18.6748 12.5209 18.7359 12.7695 18.7359C13.2757 18.7359 13.7681 18.4823 14.0394 18.0284C14.4439 17.352 14.2039 16.487 13.5033 16.0964Z" fill="#396174"/>
<path d="M46.1146 34.2755L37.9619 29.7308C37.2611 29.3402 36.3653 29.572 35.9609 30.2485C35.5564 30.9251 35.7964 31.7901 36.497 32.1806L44.6498 36.7253C44.8805 36.8539 45.1323 36.915 45.3808 36.915C45.8871 36.915 46.3795 36.6614 46.6507 36.2076C47.0552 35.531 46.8152 34.666 46.1146 34.2755Z" fill="#396174"/>
<path d="M10.879 22.7242H1.46485C0.655861 22.7242 0 23.3574 0 24.1385C0 24.9196 0.655861 25.5529 1.46485 25.5529H10.879C11.688 25.5529 12.3439 24.9196 12.3439 24.1385C12.3439 23.3574 11.688 22.7242 10.879 22.7242Z" fill="#396174"/>
<path d="M48.5352 22.7242H39.1213C38.3124 22.7242 37.6565 23.3574 37.6565 24.1385C37.6565 24.9196 38.3124 25.5529 39.1213 25.5529H48.5352C49.3441 25.5529 50 24.9196 50 24.1385C50 23.3574 49.3441 22.7242 48.5352 22.7242Z" fill="#396174"/>
<path d="M14.0396 30.2485C13.6351 29.572 12.7394 29.3402 12.0386 29.7309L3.8857 34.2757C3.18511 34.6663 2.94508 35.5313 3.34957 36.2077C3.62086 36.6616 4.11324 36.9151 4.61949 36.9151C4.86802 36.9151 5.11988 36.854 5.35054 36.7254L13.5035 32.1806C14.204 31.79 14.4441 30.925 14.0396 30.2485Z" fill="#396174"/>
<path d="M46.6505 12.0695C46.246 11.3929 45.3502 11.1612 44.6495 11.5518L36.4968 16.0966C35.7962 16.4871 35.5562 17.3521 35.9607 18.0285C36.2319 18.4824 36.7243 18.736 37.2306 18.736C37.479 18.736 37.731 18.6749 37.9616 18.5463L46.1144 14.0015C46.8149 13.6109 47.055 12.7459 46.6505 12.0695Z" fill="#396174"/>
<path d="M18.6721 34.7214C17.9715 34.3307 17.0755 34.5625 16.6711 35.2391L11.9641 43.1109C11.5596 43.7873 11.7996 44.6524 12.5002 45.0429C12.7309 45.1715 12.9827 45.2326 13.2313 45.2326C13.7375 45.2326 14.23 44.979 14.5012 44.5253L19.2082 36.6534C19.6127 35.977 19.3727 35.112 18.6721 34.7214Z" fill="#396174"/>
<path d="M37.5 3.23417C36.7993 2.84343 35.9034 3.07529 35.499 3.75182L30.792 11.6235C30.3874 12.2999 30.6275 13.1649 31.3282 13.5555C31.5588 13.6841 31.8107 13.7452 32.0592 13.7452C32.5655 13.7452 33.0579 13.4916 33.3291 13.0378L38.0361 5.16618C38.4406 4.48974 38.2006 3.62472 37.5 3.23417Z" fill="#396174"/>
</svg>
