<svg width="53" height="54" viewBox="0 0 53 54" fill="none" xmlns="http://www.w3.org/2000/svg">
<path d="M51.5625 32.6562L48.718 32.0203C47.1731 31.6776 45.7143 31.0239 44.4304 30.099C43.1464 29.1741 42.0643 27.9974 41.25 26.6406C40.4357 27.9974 39.3536 29.1741 38.0696 30.099C36.7857 31.0239 35.3269 31.6776 33.782 32.0203L30.9375 32.6562C30.9375 36.3918 31.8072 40.0761 33.4778 43.4173C35.1485 46.7585 37.574 49.6649 40.5625 51.9063L41.25 52.4219L41.9375 51.9063C44.926 49.6649 47.3515 46.7585 49.0222 43.4173C50.6928 40.0761 51.5625 36.3918 51.5625 32.6562Z" fill="#42C5CA"/>
<path d="M36.8328 48.4258C43.7078 46.5695 48.9844 40.2961 50.3594 32.3898L48.718 32.0203C47.1731 31.6776 45.7143 31.0239 44.4304 30.099C43.1464 29.1741 42.0643 27.9974 41.25 26.6406C40.4357 27.9974 39.3536 29.1741 38.0696 30.099C36.7857 31.0239 35.3269 31.6776 33.782 32.0203L30.9375 32.6563C30.9396 38.4511 33.033 44.0506 36.8328 48.4258Z" fill="#42C5CA"/>
<path d="M6.01562 23.2031H10.3125V14.6094C10.3125 12.3302 11.2179 10.1443 12.8296 8.53268C14.4412 6.92103 16.627 6.01562 18.9062 6.01562C21.1855 6.01562 23.3713 6.92103 24.9829 8.53268C26.5946 10.1443 27.5 12.3302 27.5 14.6094V23.2031H31.7969C32.0872 23.2076 32.3759 23.248 32.6562 23.3234V14.6094C32.6562 10.9626 31.2076 7.46528 28.629 4.88666C26.0503 2.30803 22.553 0.859375 18.9062 0.859375C15.2595 0.859375 11.7622 2.30803 9.18353 4.88666C6.60491 7.46528 5.15625 10.9626 5.15625 14.6094V23.3234C5.43664 23.248 5.7253 23.2076 6.01562 23.2031Z" fill="#9CB0B9"/>
<path d="M0.859375 30.0781H11.1719V45.5469H0.859375V30.0781Z" fill="#9CB0B9"/>
<path d="M20.625 39.1445V31.7969C20.625 31.341 20.4439 30.9039 20.1216 30.5815C19.7993 30.2592 19.3621 30.0781 18.9063 30.0781C18.4504 30.0781 18.0132 30.2592 17.6909 30.5815C17.3686 30.9039 17.1875 31.341 17.1875 31.7969V39.1445C16.5322 39.5229 16.02 40.1069 15.7304 40.806C15.4408 41.5051 15.39 42.2803 15.5859 43.0112C15.7817 43.7421 16.2133 44.388 16.8136 44.8486C17.414 45.3093 18.1495 45.559 18.9063 45.559C19.663 45.559 20.3985 45.3093 20.9989 44.8486C21.5992 44.388 22.0308 43.7421 22.2266 43.0112C22.4225 42.2803 22.3717 41.5051 22.0821 40.806C21.7925 40.1069 21.2803 39.5229 20.625 39.1445Z" fill="#9CB0B9"/>
<path d="M41.25 44.6875C44.0977 44.6875 46.4062 42.379 46.4062 39.5312C46.4062 36.6835 44.0977 34.375 41.25 34.375C38.4023 34.375 36.0938 36.6835 36.0938 39.5312C36.0938 42.379 38.4023 44.6875 41.25 44.6875Z" fill="#F5FBFE"/>
<path d="M21.4845 38.6719V31.7969C21.4845 31.1131 21.2129 30.4574 20.7294 29.9739C20.2459 29.4904 19.5901 29.2188 18.9064 29.2188C18.2226 29.2188 17.5669 29.4904 17.0834 29.9739C16.5999 30.4574 16.3283 31.1131 16.3283 31.7969V38.6719C15.6813 39.1612 15.1861 39.8237 14.8999 40.5826C14.6137 41.3416 14.5482 42.1661 14.7109 42.9607C14.8736 43.7554 15.2579 44.4877 15.8194 45.0731C16.3808 45.6585 17.0965 46.0731 17.8837 46.2687C18.2184 46.3527 18.5614 46.3988 18.9064 46.4062C19.8082 46.4062 20.6872 46.1225 21.4188 45.5952C22.1504 45.0679 22.6976 44.3237 22.9827 43.4682C23.2679 42.6126 23.2767 41.689 23.0078 40.8282C22.7389 39.9674 22.206 39.213 21.4845 38.6719ZM20.5048 44.1117C20.2293 44.346 19.9075 44.5196 19.5605 44.6214C19.2135 44.7232 18.8489 44.7508 18.4905 44.7025C18.1321 44.6542 17.7879 44.531 17.4802 44.3409C17.1725 44.1509 16.9082 43.8982 16.7046 43.5994C16.5009 43.3006 16.3624 42.9622 16.298 42.6063C16.2336 42.2505 16.2449 41.885 16.3309 41.5338C16.417 41.1825 16.576 40.8533 16.7977 40.5675C17.0193 40.2818 17.2985 40.0458 17.6173 39.875C17.7485 39.7993 17.8573 39.6903 17.9327 39.559C18.0082 39.4277 18.0476 39.2788 18.047 39.1273V31.7969C18.047 31.569 18.1375 31.3504 18.2987 31.1892C18.4599 31.028 18.6785 30.9375 18.9064 30.9375C19.1343 30.9375 19.3529 31.028 19.514 31.1892C19.6752 31.3504 19.7658 31.569 19.7658 31.7969V39.1445C19.7652 39.296 19.8046 39.4449 19.88 39.5762C19.9555 39.7074 20.0643 39.8165 20.1954 39.8922C20.5562 40.1034 20.8602 40.3992 21.0812 40.7541C21.3022 41.109 21.4336 41.5123 21.464 41.9292C21.4944 42.3462 21.423 42.7643 21.2559 43.1475C21.0888 43.5307 20.8311 43.8675 20.5048 44.1289V44.1117Z" fill="#083A51"/>
<path d="M51.7516 31.7969L48.907 31.1695C47.4849 30.8435 46.1431 30.234 44.9618 29.3776C43.7806 28.5212 42.7841 27.4354 42.032 26.1852C41.9559 26.0569 41.8478 25.9507 41.7182 25.8769C41.5886 25.8031 41.4421 25.7643 41.293 25.7643C41.1439 25.7643 40.9973 25.8031 40.8677 25.8769C40.7381 25.9507 40.63 26.0569 40.5539 26.1852C39.4881 27.9464 37.9404 29.3659 36.0938 30.2758V26.6406C36.0933 25.8049 35.8492 24.9875 35.3913 24.2884C34.9334 23.5893 34.2816 23.039 33.5156 22.7047V14.6094C33.5156 10.7347 31.9764 7.01878 29.2366 4.27899C26.4969 1.5392 22.7809 0 18.9062 0C15.0316 0 11.3157 1.5392 8.57586 4.27899C5.83607 7.01878 4.29688 10.7347 4.29688 14.6094V22.7047C3.53095 23.039 2.87912 23.5893 2.42121 24.2884C1.9633 24.9875 1.71918 25.8049 1.71875 26.6406V29.2188H0.859375C0.631455 29.2188 0.412869 29.3093 0.251705 29.4705C0.090541 29.6316 0 29.8502 0 30.0781V45.5469C0 45.7748 0.090541 45.9934 0.251705 46.1545C0.412869 46.3157 0.631455 46.4062 0.859375 46.4062H1.71875V48.9844C1.71875 50.124 2.17146 51.2169 2.97728 52.0227C3.7831 52.8285 4.87602 53.2812 6.01562 53.2812H31.7969C32.9365 53.2812 34.0294 52.8285 34.8352 52.0227C35.641 51.2169 36.0938 50.124 36.0938 48.9844V48.8727C37.2724 50.2529 38.5979 51.5006 40.0469 52.5938L40.7344 53.1094C40.8831 53.2209 41.0641 53.2812 41.25 53.2812C41.4359 53.2812 41.6169 53.2209 41.7656 53.1094L42.4531 52.5938C45.541 50.2655 48.0478 47.2539 49.7773 43.7949C51.5068 40.3359 52.4119 36.5235 52.4219 32.6562C52.4267 32.4576 52.3626 32.2634 52.2404 32.1067C52.1182 31.95 51.9454 31.8405 51.7516 31.7969ZM6.01562 14.6094C6.01562 11.1906 7.37374 7.91179 9.7912 5.49433C12.2087 3.07687 15.4874 1.71875 18.9062 1.71875C22.3251 1.71875 25.6038 3.07687 28.0213 5.49433C30.4388 7.91179 31.7969 11.1906 31.7969 14.6094V22.3438H28.3594V14.6094C28.3594 12.1023 27.3634 9.69781 25.5906 7.92501C23.8178 6.1522 21.4134 5.15625 18.9062 5.15625C16.3991 5.15625 13.9947 6.1522 12.2219 7.92501C10.4491 9.69781 9.45312 12.1023 9.45312 14.6094V22.3438H6.01562V14.6094ZM26.6406 22.3438H11.1719V14.6094C11.1719 12.5581 11.9867 10.5908 13.4372 9.14035C14.8877 7.68987 16.855 6.875 18.9062 6.875C20.9575 6.875 22.9248 7.68987 24.3753 9.14035C25.8258 10.5908 26.6406 12.5581 26.6406 14.6094V22.3438ZM10.3125 30.9375V34.375H1.71875V30.9375H10.3125ZM1.71875 44.6875V41.25H10.3125V44.6875H1.71875ZM10.3125 39.5312H1.71875V36.0938H10.3125V39.5312ZM34.375 48.9844C34.375 49.6681 34.1034 50.3239 33.6199 50.8074C33.1364 51.2909 32.4806 51.5625 31.7969 51.5625H6.01562C5.33186 51.5625 4.67611 51.2909 4.19262 50.8074C3.70912 50.3239 3.4375 49.6681 3.4375 48.9844V46.4062H11.1719C11.3998 46.4062 11.6184 46.3157 11.7795 46.1545C11.9407 45.9934 12.0312 45.7748 12.0312 45.5469V30.0781C12.0312 29.8502 11.9407 29.6316 11.7795 29.4705C11.6184 29.3093 11.3998 29.2188 11.1719 29.2188H3.4375V26.6406C3.4375 25.9569 3.70912 25.3011 4.19262 24.8176C4.67611 24.3341 5.33186 24.0625 6.01562 24.0625H31.7969C32.4806 24.0625 33.1364 24.3341 33.6199 24.8176C34.1034 25.3011 34.375 25.9569 34.375 26.6406V30.9375C34.1172 31.0148 33.8594 31.0922 33.593 31.1523L30.7484 31.7969C30.5546 31.8405 30.3818 31.95 30.2596 32.1067C30.1374 32.2634 30.0733 32.4576 30.0781 32.6562C30.0921 37.6319 31.588 42.4906 34.375 46.6125V48.9844ZM41.4219 51.2188L41.25 51.3477L41.0781 51.2188C38.2942 49.1217 36.0155 46.4276 34.4094 43.3343C32.8033 40.2411 31.9106 36.8273 31.7969 33.3438L33.9539 32.8625C36.8643 32.2158 39.4502 30.5558 41.25 28.1789C43.0476 30.5541 45.6302 32.2139 48.5375 32.8625L50.7031 33.3438C50.5894 36.8273 49.6967 40.2411 48.0906 43.3343C46.4845 46.4276 44.2058 49.1217 41.4219 51.2188Z" fill="#083A51"/>
<path d="M46.3118 33.9023L44.7822 33.1289L44.1978 34.2891C42.8713 33.505 41.297 33.2526 39.7919 33.5828C38.2868 33.9129 36.9626 34.8011 36.0861 36.0684C35.2097 37.3358 34.8459 38.8881 35.0681 40.4129C35.2903 41.9377 36.082 43.3217 37.2838 44.2861C38.4855 45.2506 40.008 45.7239 41.5448 45.6108C43.0815 45.4976 44.5183 44.8064 45.5658 43.6764C46.6134 42.5463 47.1938 41.0613 47.1903 39.5204C47.1868 37.9795 46.5996 36.4972 45.547 35.3719L46.3118 33.9023ZM45.547 39.5313C45.5568 40.4908 45.2482 41.4265 44.6697 42.192C44.0911 42.9576 43.2752 43.5098 42.3494 43.7623C41.4237 44.0148 40.4403 43.9534 39.5532 43.5876C38.6661 43.2219 37.9252 42.5724 37.4464 41.7408C36.9676 40.9092 36.7779 39.9424 36.907 38.9916C37.0361 38.0407 37.4766 37.1595 38.1598 36.4856C38.843 35.8118 39.7302 35.3834 40.6828 35.2674C41.6353 35.1514 42.5994 35.3543 43.4243 35.8445L41.104 40.4852L39.3853 38.1563L38.0103 39.1875L40.5884 42.625C40.6684 42.7317 40.7722 42.8184 40.8916 42.878C41.0109 42.9377 41.1425 42.9688 41.2759 42.9688H41.3532C41.4985 42.9548 41.6379 42.9042 41.7582 42.8215C41.8785 42.7388 41.9757 42.6268 42.0407 42.4961L44.765 37.0477C45.2804 37.7726 45.5541 38.6417 45.547 39.5313Z" fill="#083A51"/>
</svg>
