<svg width="116" height="16" viewBox="0 0 116 16" fill="none" xmlns="http://www.w3.org/2000/svg">
<path d="M10.9043 5.26367C10.9043 6.85872 10.4323 8.09245 9.48828 8.96484C8.55078 9.83073 7.21615 10.2637 5.48438 10.2637H4.40039V15H0.542969V0.722656H5.48438C7.28776 0.722656 8.64193 1.11654 9.54688 1.9043C10.4518 2.69206 10.9043 3.81185 10.9043 5.26367ZM4.40039 7.11914H5.10352C5.68294 7.11914 6.14193 6.95638 6.48047 6.63086C6.82552 6.30534 6.99805 5.85612 6.99805 5.2832C6.99805 4.31966 6.46419 3.83789 5.39648 3.83789H4.40039V7.11914ZM25.2988 7.55859C25.2988 9.94141 24.6413 11.7773 23.3262 13.0664C22.0176 14.3555 20.1751 15 17.7988 15H13.1797V0.722656H18.1211C20.4128 0.722656 22.1803 1.30859 23.4238 2.48047C24.6738 3.65234 25.2988 5.34505 25.2988 7.55859ZM21.2949 7.69531C21.2949 6.38672 21.0345 5.41667 20.5137 4.78516C19.9993 4.15365 19.2148 3.83789 18.1602 3.83789H17.0371V11.8359H17.8965C19.0684 11.8359 19.9277 11.4974 20.4746 10.8203C21.0215 10.1367 21.2949 9.09505 21.2949 7.69531ZM31.666 15H27.8672V0.722656H36.3047V3.81836H31.666V6.54297H35.9434V9.63867H31.666V15Z" fill="#42C5CA"/>
<path d="M49.0391 12.1777C49.5534 12.1777 50.1686 12.0508 50.8848 11.7969V14.5801C50.3704 14.8014 49.8789 14.9577 49.4102 15.0488C48.9479 15.1465 48.4043 15.1953 47.7793 15.1953C46.4967 15.1953 45.5723 14.8828 45.0059 14.2578C44.4395 13.6263 44.1562 12.6595 44.1562 11.3574V6.79688H42.8184V5.24414L44.5176 4.04297L45.5039 1.71875H48.0039V3.93555H50.7188V6.79688H48.0039V11.1035C48.0039 11.8197 48.349 12.1777 49.0391 12.1777ZM63.3848 9.44336C63.3848 11.2533 62.8965 12.666 61.9199 13.6816C60.9499 14.6908 59.5892 15.1953 57.8379 15.1953C56.1582 15.1953 54.8203 14.6777 53.8242 13.6426C52.8346 12.6074 52.3398 11.2077 52.3398 9.44336C52.3398 7.63997 52.8249 6.24023 53.7949 5.24414C54.7715 4.24154 56.1387 3.74023 57.8965 3.74023C58.9837 3.74023 59.944 3.97135 60.7773 4.43359C61.6107 4.89583 62.252 5.5599 62.7012 6.42578C63.1569 7.28516 63.3848 8.29102 63.3848 9.44336ZM56.2168 9.44336C56.2168 10.3939 56.3438 11.1198 56.5977 11.6211C56.8516 12.1159 57.278 12.3633 57.877 12.3633C58.4694 12.3633 58.8861 12.1159 59.127 11.6211C59.3743 11.1198 59.498 10.3939 59.498 9.44336C59.498 8.49935 59.3743 7.78646 59.127 7.30469C58.8796 6.82292 58.4564 6.58203 57.8574 6.58203C57.2715 6.58203 56.8516 6.82292 56.5977 7.30469C56.3438 7.77995 56.2168 8.49284 56.2168 9.44336ZM79.3125 11.6016C79.3125 12.7865 78.9089 13.6816 78.1016 14.2871C77.2943 14.8926 76.1354 15.1953 74.625 15.1953C73.8047 15.1953 73.0918 15.1497 72.4863 15.0586C71.8809 14.974 71.2624 14.8145 70.6309 14.5801V11.5234C71.2233 11.7839 71.8711 11.9987 72.5742 12.168C73.2839 12.3372 73.9154 12.4219 74.4688 12.4219C75.2956 12.4219 75.709 12.2331 75.709 11.8555C75.709 11.6602 75.5918 11.4876 75.3574 11.3379C75.1296 11.1816 74.459 10.8822 73.3457 10.4395C72.3301 10.0228 71.6204 9.55078 71.2168 9.02344C70.8132 8.48958 70.6113 7.81576 70.6113 7.00195C70.6113 5.97331 71.0085 5.17253 71.8027 4.59961C72.597 4.02669 73.7201 3.74023 75.1719 3.74023C75.901 3.74023 76.5846 3.82161 77.2227 3.98438C77.8672 4.14062 78.5345 4.37174 79.2246 4.67773L78.1895 7.13867C77.6816 6.91081 77.1445 6.71875 76.5781 6.5625C76.0117 6.39974 75.5495 6.31836 75.1914 6.31836C74.5664 6.31836 74.2539 6.47135 74.2539 6.77734C74.2539 6.96615 74.3613 7.12891 74.5762 7.26562C74.7975 7.39583 75.429 7.66602 76.4707 8.07617C77.2454 8.39518 77.8216 8.70768 78.1992 9.01367C78.5833 9.31966 78.8633 9.68099 79.0391 10.0977C79.2214 10.5078 79.3125 11.0091 79.3125 11.6016ZM86.4707 15.1953C84.6608 15.1953 83.2871 14.707 82.3496 13.7305C81.4186 12.7539 80.9531 11.3509 80.9531 9.52148C80.9531 7.68555 81.4577 6.26302 82.4668 5.25391C83.4759 4.24479 84.9115 3.74023 86.7734 3.74023C88.056 3.74023 89.2637 4.02018 90.3965 4.58008L89.2734 7.40234C88.8112 7.20052 88.3848 7.04102 87.9941 6.92383C87.6035 6.80013 87.1966 6.73828 86.7734 6.73828C86.1549 6.73828 85.6764 6.97917 85.3379 7.46094C84.9993 7.94271 84.8301 8.62305 84.8301 9.50195C84.8301 11.2728 85.4844 12.1582 86.793 12.1582C87.9128 12.1582 88.987 11.8327 90.0156 11.1816V14.2188C89.0326 14.8698 87.8509 15.1953 86.4707 15.1953ZM99.4297 15L98.6973 13.5352H98.6191C98.1048 14.1732 97.5807 14.6094 97.0469 14.8438C96.513 15.0781 95.8229 15.1953 94.9766 15.1953C93.9349 15.1953 93.1146 14.8828 92.5156 14.2578C91.9167 13.6328 91.6172 12.7539 91.6172 11.6211C91.6172 10.4427 92.0273 9.56706 92.8477 8.99414C93.668 8.41471 94.8561 8.08919 96.4121 8.01758L98.2578 7.95898V7.80273C98.2578 6.89128 97.8086 6.43555 96.9102 6.43555C96.1029 6.43555 95.0775 6.70898 93.834 7.25586L92.7305 4.73633C94.0195 4.07227 95.6471 3.74023 97.6133 3.74023C99.0326 3.74023 100.13 4.0918 100.904 4.79492C101.686 5.49805 102.076 6.48112 102.076 7.74414V15H99.4297ZM96.5977 12.5C97.0599 12.5 97.4538 12.3535 97.7793 12.0605C98.1113 11.7676 98.2773 11.3867 98.2773 10.918V10.0586L97.3984 10.0977C96.1419 10.1432 95.5137 10.6055 95.5137 11.4844C95.5137 12.1615 95.875 12.5 96.5977 12.5ZM111.656 15V8.96484C111.656 8.22917 111.549 7.67578 111.334 7.30469C111.126 6.92708 110.787 6.73828 110.318 6.73828C109.674 6.73828 109.208 6.99544 108.922 7.50977C108.635 8.02409 108.492 8.90625 108.492 10.1562V15H104.674V3.93555H107.555L108.033 5.30273H108.258C108.583 4.7819 109.033 4.39128 109.605 4.13086C110.185 3.87044 110.849 3.74023 111.598 3.74023C112.822 3.74023 113.772 4.09505 114.449 4.80469C115.133 5.51432 115.475 6.51367 115.475 7.80273V15H111.656Z" fill="#062E41"/>
</svg>
