<svg width="60" height="60" viewBox="0 0 60 60" fill="none" xmlns="http://www.w3.org/2000/svg">
<g clip-path="url(#clip0)">
<path fill-rule="evenodd" clip-rule="evenodd" d="M49.9539 11.8432L47.3204 19.5508L51.7375 26.6259C52.0286 27.0921 52.0323 27.6737 51.7471 28.1437C51.462 28.6138 50.9445 28.8785 50.3965 28.8363L41.9367 28.1745L37.6052 34.8791C37.3337 35.2991 36.8828 35.5417 36.3952 35.5417C36.3263 35.5418 36.2567 35.5369 36.1867 35.527C35.6216 35.4473 35.1679 35.0582 35.003 34.5119L33.8135 30.5719L25.1702 39.2207L23.9241 37.9747L33.2355 28.6579L32.7869 27.1719L31.301 26.7232L9.72683 48.2973C9.55474 48.4693 9.32919 48.5553 9.10377 48.5553C8.87834 48.5553 8.6528 48.4693 8.48071 48.2973C8.13664 47.9532 8.13664 47.3955 8.48071 47.0513L29.387 26.1455L25.447 24.956C24.9005 24.7911 24.5115 24.3374 24.4318 23.7723C24.3522 23.2071 24.6004 22.6636 25.0798 22.3538L31.7845 18.0224L31.1227 9.56265C31.0799 9.01454 31.3453 8.49697 31.8153 8.21175C32.2853 7.92665 32.8666 7.93053 33.3331 8.22162L40.4082 12.6386L42.3855 11.963L42.3878 11.9622L48.1158 10.0048C48.6423 9.82508 49.2142 9.95759 49.6078 10.3511C50.0013 10.7446 50.1339 11.3165 49.9539 11.8432ZM48.0795 11.8793L42.9551 13.6303L40.8366 14.3541C40.423 14.4954 39.9729 14.4438 39.6023 14.2127L32.928 10.0459L33.5558 18.0716C33.5974 18.6021 33.3455 19.1114 32.8983 19.4005L26.6062 23.4655L33.4575 25.5339C33.9233 25.6746 34.2849 26.0364 34.4251 26.5018L36.4935 33.3528L40.5583 27.061C40.8469 26.6136 41.3549 26.3601 41.8876 26.4033L49.9131 27.031L45.7465 20.3572C45.5149 19.9862 45.4632 19.536 45.6047 19.122L48.0795 11.8793Z" fill="#083A51"/>
<path fill-rule="evenodd" clip-rule="evenodd" d="M4.14938 57.744L23.9886 37.9046L25.2348 39.1506L5.3955 58.99C4.75083 59.6346 3.90822 59.9587 3.07559 59.9587C2.27855 59.9588 1.49068 59.6619 0.893819 59.0651C-0.326693 57.8446 -0.292979 55.8253 0.968765 54.5634L5.82145 49.7109C6.16552 49.367 6.72326 49.367 7.06745 49.7109C7.41152 50.055 7.41152 50.6128 7.06745 50.9569L2.21489 55.8095C1.63999 56.3842 1.60627 57.2858 2.13971 57.8191C2.67325 58.3527 3.57472 58.3187 4.14938 57.744Z" fill="#083A51"/>
<path d="M18.9104 18.4343C19.1155 18.5443 19.3442 18.6001 19.5736 18.6001C19.7231 18.6001 19.8733 18.5763 20.0169 18.5282L23.4885 17.3663C23.9452 17.2136 24.2874 16.8434 24.4038 16.376C24.5203 15.9087 24.3917 15.4212 24.0601 15.0721L21.464 12.3383C20.9574 11.8044 20.1182 11.7536 19.554 12.2228L19.5541 12.2226C17.6775 13.7822 17.7917 15.9877 18.2179 17.5632C18.3186 17.935 18.5709 18.2524 18.9104 18.4343ZM20.4314 13.8098L22.3925 15.875L19.8278 16.7334C19.6311 15.8342 19.5789 14.7027 20.4314 13.8098Z" fill="#083A51"/>
<path d="M38.2998 6.0194C38.5637 6.39883 38.9901 6.62085 39.4494 6.62085C39.4686 6.62085 39.4879 6.62049 39.5073 6.61967C39.9886 6.60017 40.4203 6.33997 40.6623 5.92366L42.5571 2.66422C42.9267 2.02801 42.74 1.20865 42.1317 0.798919C42.1317 0.798919 42.1317 0.798802 42.1316 0.798802C40.1077 -0.564084 38.0232 0.164817 36.631 1.01624C36.3025 1.21699 36.0685 1.54838 35.9892 1.92522C35.9101 2.30159 35.9906 2.69841 36.21 3.01381L38.2998 6.0194ZM40.8548 2.08651L39.4233 4.54868L37.8794 2.32838C38.6871 1.88704 39.7586 1.51924 40.8548 2.08651Z" fill="#083A51"/>
<path d="M28.7718 5.64421C28.9458 5.85965 29.2005 5.97136 29.4575 5.97136C29.6519 5.97136 29.8477 5.90722 30.0108 5.77542C30.3893 5.46953 30.448 4.91484 30.142 4.53646L28.5369 2.55111C28.2311 2.17273 27.6764 2.11388 27.2979 2.41989C26.9194 2.72578 26.8607 3.28048 27.1667 3.65885L28.7718 5.64421Z" fill="#083A51"/>
<path d="M44.9696 35.982C44.6203 35.6506 44.1329 35.5221 43.6655 35.6383C43.1981 35.7547 42.828 36.0969 42.6753 36.5535L41.5134 40.0252C41.3914 40.3893 41.4256 40.7925 41.6071 41.1314C41.789 41.471 42.1064 41.7233 42.4783 41.8241C43.1584 42.0081 43.7684 42.0873 44.3155 42.0873C46.0634 42.0873 47.163 41.2769 47.8188 40.488C48.2877 39.9238 48.2371 39.0848 47.7032 38.578L44.9696 35.982ZM43.3084 40.2142L44.1668 37.6495L46.232 39.6106C45.3389 40.4634 44.2073 40.4112 43.3084 40.2142Z" fill="#083A51"/>
<path d="M59.243 17.9102C59.243 17.9101 59.2428 17.9101 59.243 17.9102C58.8331 17.3017 58.0139 17.115 57.3773 17.4847L54.118 19.3796C53.7016 19.6216 53.4415 20.0533 53.4221 20.5346C53.4026 21.0157 53.6271 21.4671 54.0223 21.7418L57.0276 23.8316C57.2637 23.9958 57.545 24.0823 57.8296 24.0823C57.9253 24.0823 58.0215 24.0724 58.1162 24.0526C58.4931 23.9733 58.8245 23.7394 59.0253 23.4109C60.5684 20.8885 59.9954 19.0273 59.243 17.9102ZM57.7135 22.1622L55.4931 20.6182L57.9554 19.1867C58.5227 20.2833 58.1549 21.3545 57.7135 22.1622Z" fill="#083A51"/>
<path d="M57.4906 31.5051L55.5052 29.9C55.1266 29.5938 54.572 29.6527 54.2662 30.0312C53.9603 30.4096 54.0191 30.9642 54.3974 31.2701L56.3828 32.8752C56.5459 33.007 56.7417 33.0712 56.9361 33.0712C57.1931 33.0712 57.4477 32.9595 57.6218 32.744C57.9278 32.3657 57.869 31.8109 57.4906 31.5051Z" fill="#083A51"/>
<path d="M55.3953 5.02056C55.063 4.66533 54.5053 4.64642 54.15 4.97909L51.9476 7.03963C51.5923 7.37207 51.5737 7.92958 51.9061 8.28493C52.0796 8.4703 52.3143 8.56404 52.5497 8.56404C52.7653 8.56404 52.9815 8.48533 53.1514 8.3264L55.3538 6.26586C55.7092 5.9333 55.7279 5.37579 55.3953 5.02056Z" fill="#083A51"/>
</g>
<defs>
<clipPath id="clip0">
<rect width="60" height="60" fill="white"/>
</clipPath>
</defs>
</svg>
