<svg width="41" height="41" viewBox="0 0 41 41" fill="none" xmlns="http://www.w3.org/2000/svg">
<path d="M26.9831 29H15.0065V26.4805L19.3073 22.1328C20.5808 20.8281 21.4128 19.9258 21.8034 19.4258C22.194 18.918 22.4753 18.4492 22.6472 18.0195C22.819 17.5898 22.905 17.1445 22.905 16.6836C22.905 15.9961 22.7136 15.4844 22.3308 15.1484C21.9558 14.8125 21.4518 14.6445 20.819 14.6445C20.155 14.6445 19.5104 14.7969 18.8854 15.1016C18.2604 15.4062 17.6081 15.8398 16.9284 16.4023L14.9597 14.0703C15.8034 13.3516 16.5026 12.8438 17.0573 12.5469C17.612 12.25 18.2175 12.0234 18.8737 11.8672C19.53 11.7031 20.2643 11.6211 21.0768 11.6211C22.1472 11.6211 23.0925 11.8164 23.9128 12.207C24.7331 12.5977 25.3698 13.1445 25.8229 13.8477C26.2761 14.5508 26.5026 15.3555 26.5026 16.2617C26.5026 17.0508 26.362 17.793 26.0808 18.4883C25.8073 19.1758 25.3776 19.8828 24.7917 20.6094C24.2136 21.3359 23.1901 22.3711 21.7214 23.7148L19.5183 25.7891V25.9531H26.9831V29Z" fill="#42C5CA"/>
<path d="M39.5566 20.5C39.5566 31.1371 30.9758 39.75 20.4033 39.75C9.83079 39.75 1.25 31.1371 1.25 20.5C1.25 9.86294 9.83079 1.25 20.4033 1.25C30.9758 1.25 39.5566 9.86294 39.5566 20.5Z" stroke="#42C5CA" stroke-width="2.5"/>
</svg>
