<svg width="41" height="41" viewBox="0 0 41 41" fill="none" xmlns="http://www.w3.org/2000/svg">
<path d="M26.2036 15.6992C26.2036 16.7695 25.8794 17.6797 25.231 18.4297C24.5825 19.1797 23.6724 19.6953 22.5005 19.9766V20.0469C23.8833 20.2188 24.9302 20.6406 25.6411 21.3125C26.3521 21.9766 26.7075 22.875 26.7075 24.0078C26.7075 25.6562 26.1099 26.9414 24.9146 27.8633C23.7192 28.7773 22.0122 29.2344 19.7935 29.2344C17.9341 29.2344 16.2856 28.9258 14.8481 28.3086V25.2266C15.5122 25.5625 16.2427 25.8359 17.0396 26.0469C17.8364 26.2578 18.6255 26.3633 19.4067 26.3633C20.6021 26.3633 21.4849 26.1602 22.0552 25.7539C22.6255 25.3477 22.9106 24.6953 22.9106 23.7969C22.9106 22.9922 22.5825 22.4219 21.9263 22.0859C21.27 21.75 20.2231 21.582 18.7856 21.582H17.4849V18.8047H18.8091C20.1372 18.8047 21.106 18.6328 21.7153 18.2891C22.3325 17.9375 22.6411 17.3398 22.6411 16.4961C22.6411 15.1992 21.8286 14.5508 20.2036 14.5508C19.6411 14.5508 19.0669 14.6445 18.481 14.832C17.9028 15.0195 17.2583 15.3438 16.5474 15.8047L14.8716 13.3086C16.4341 12.1836 18.2974 11.6211 20.4614 11.6211C22.2349 11.6211 23.6333 11.9805 24.6567 12.6992C25.688 13.418 26.2036 14.418 26.2036 15.6992Z" fill="#42C5CA"/>
<path d="M39.5566 20.5C39.5566 31.1371 30.9758 39.75 20.4033 39.75C9.83079 39.75 1.25 31.1371 1.25 20.5C1.25 9.86294 9.83079 1.25 20.4033 1.25C30.9758 1.25 39.5566 9.86294 39.5566 20.5Z" stroke="#42C5CA" stroke-width="2.5"/>
</svg>
