<svg width="23" height="23" viewBox="0 0 23 23" fill="none" xmlns="http://www.w3.org/2000/svg">
<path d="M21.562 13.6598C21.562 15.6722 20.3546 15.8159 20.1246 15.8159H2.4514L6.2534 12.0139L5.24002 10.9933L0.209011 16.0243C-0.0696704 16.3047 -0.0696704 16.7574 0.209011 17.0377L5.24002 22.0687L6.2534 21.0553L2.4514 17.2533H20.1246C21.1164 17.2533 22.9995 16.5346 22.9995 13.6598V11.5036H21.562V13.6598Z" fill="#6B8997"/>
<path d="M1.43889 9.34747C1.43889 7.33507 2.64634 7.19133 2.87632 7.19133H20.5495L16.7475 10.9933L17.7609 12.0067L22.7919 6.97571C23.0706 6.69537 23.0706 6.24267 22.7919 5.96232L17.7609 0.93132L16.7403 1.9519L20.5495 5.7539H2.87632C1.8845 5.7539 0.00146484 6.47261 0.00146484 9.34747V11.5036H1.43889V9.34747Z" fill="#6B8997"/>
</svg>
