<svg width="48" height="63" viewBox="0 0 48 63" fill="none" xmlns="http://www.w3.org/2000/svg">
<rect x="9" y="1" width="38" height="53" rx="3" fill="white" stroke="#B00020" stroke-width="2"/>
<rect x="5" y="5" width="38" height="53" rx="3" fill="white" stroke="#B00020" stroke-width="2"/>
<path fill-rule="evenodd" clip-rule="evenodd" d="M27.0145 9.5587C26.0704 8.56356 24.7589 8 23.3872 8H5C2.23858 8 0 10.2386 0 13V58C0 60.7614 2.23858 63 5 63H35.0714C37.8329 63 40.0714 60.7614 40.0714 58V25.3158C40.0714 24.0353 39.5801 22.8035 38.6987 21.8745L27.0145 9.5587Z" fill="white"/>
<path fill-rule="evenodd" clip-rule="evenodd" d="M25.8847 8.3242L39.8967 22.8841C40.0863 23.0812 40.1923 23.344 40.1923 23.6175V58.7728C40.1923 61.1037 38.2909 63 35.9537 63H4.23865C1.90147 63 0 61.1026 0 58.7705V49.25H2.11535V58.7706C2.11535 59.9363 3.06786 60.8847 4.23865 60.8847H35.9536C37.1244 60.8847 38.0769 59.9373 38.0769 58.7728V24.923H24.3269C23.7428 24.923 23.2692 24.4495 23.2692 23.8654V10.1154H4.23865C3.06786 10.1154 2.11535 11.067 2.11535 12.2369V49.25H0V12.2369C0 9.90072 1.90147 8 4.23865 8H25.1225C25.41 8 25.6852 8.11709 25.8847 8.3242ZM36.8873 22.8077L25.3847 10.8554V22.8077H36.8873Z" fill="#B00020"/>
</svg>
