<svg width="60" height="60" viewBox="0 0 60 60" fill="none" xmlns="http://www.w3.org/2000/svg">
<rect x="3.75" y="22.5" width="33.75" height="20.625" fill="#42C5CA"/>
<path d="M57.9467 16.2371L42.6609 0.353672C42.4433 0.127734 42.1431 0 41.8295 0H19.047C16.4974 0 14.4231 2.07352 14.4231 4.62211V20.7693H5.19021C3.28263 20.7693 1.73071 22.3207 1.73071 24.2278V41.5416C1.73071 43.4486 3.28263 45 5.19021 45H14.4231V55.386C14.4231 57.9301 16.4974 60 19.047 60H53.6452C56.1949 60 58.2692 57.9313 58.2692 55.3886V17.0373C58.2692 16.7389 58.1536 16.4522 57.9467 16.2371ZM42.1154 3.11496L54.6637 16.1538H42.1154V3.11496ZM5.19021 42.6923C4.55505 42.6923 4.03849 42.1761 4.03849 41.5416V24.2278C4.03849 23.5932 4.55517 23.0769 5.19021 23.0769H36.3483C36.9834 23.0769 37.5 23.5932 37.5 24.2278V41.5416C37.5 42.1761 36.9833 42.6923 36.3483 42.6923H5.19021ZM55.9615 55.3886C55.9615 56.6589 54.9224 57.6923 53.6451 57.6923H19.047C17.7698 57.6923 16.7307 56.6578 16.7307 55.3861V45H36.3483C38.2558 45 39.8077 43.4486 39.8077 41.5416V24.2278C39.8077 22.3207 38.2558 20.7693 36.3483 20.7693H16.7307V4.62211C16.7307 3.34582 17.7698 2.30766 19.047 2.30766H39.8076V17.3077C39.8076 17.9449 40.3243 18.4615 40.9615 18.4615H55.9615V55.3886Z" fill="#396174"/>
<path d="M15.5251 29.2844C15.142 28.7864 14.6665 28.463 14.0986 28.3143C13.729 28.2151 12.9357 28.1655 11.7187 28.1655H8.50732V38.0769H10.5085V34.3382H11.8134C12.7194 34.3382 13.4113 34.2908 13.889 34.1961C14.2406 34.1195 14.5865 33.9629 14.9268 33.7262C15.2672 33.4896 15.5477 33.1639 15.7686 32.7493C15.9895 32.3347 16.0999 31.8231 16.0999 31.2146C16.0998 30.4259 15.9082 29.7825 15.5251 29.2844ZM13.8112 32.0125C13.6603 32.2334 13.4518 32.3955 13.1858 32.4993C12.9198 32.603 12.3926 32.6548 11.6038 32.6548H10.5085V29.8423H11.4753C12.1965 29.8423 12.6765 29.8648 12.9153 29.9099C13.2398 29.9685 13.5081 30.115 13.7198 30.3493C13.9317 30.5837 14.0376 30.8812 14.0376 31.2417C14.0377 31.5347 13.9622 31.7916 13.8112 32.0125Z" fill="#396174"/>
<path d="M25.7204 30.8733C25.5041 30.24 25.1885 29.7048 24.7739 29.2676C24.3593 28.8303 23.8611 28.5261 23.2797 28.3548C22.8471 28.2286 22.2183 28.1655 21.3935 28.1655H17.7358V38.0769H21.5017C22.2409 38.0769 22.8313 38.0071 23.2729 37.8673C23.8635 37.678 24.3322 37.4143 24.6792 37.0762C25.1389 36.63 25.4927 36.0464 25.7407 35.3252C25.9435 34.7347 26.0449 34.0316 26.0449 33.2159C26.0449 32.2874 25.9367 31.5066 25.7204 30.8733ZM23.7732 34.9433C23.638 35.3873 23.4634 35.7062 23.2493 35.8999C23.0352 36.0937 22.7659 36.2312 22.4414 36.3123C22.1935 36.3755 21.7901 36.407 21.2312 36.407H19.7371V29.8423H20.6362C21.452 29.8423 21.9997 29.8738 22.2791 29.937C22.6531 30.018 22.9619 30.1736 23.2053 30.4035C23.4487 30.6334 23.638 30.9533 23.7732 31.3635C23.9085 31.7736 23.9761 32.3618 23.9761 33.1281C23.9761 33.8943 23.9085 34.4993 23.7732 34.9433Z" fill="#396174"/>
<path d="M34.55 29.8423V28.1655H27.7554V38.0769H29.7566V33.865H33.8942V32.1882H29.7566V29.8423H34.55Z" fill="#396174"/>
</svg>
