<svg width="64" height="65" viewBox="0 0 64 65" fill="none" xmlns="http://www.w3.org/2000/svg">
<path d="M59.1758 59.571H3.82422C1.72073 59.571 0.015625 57.8657 0.015625 55.7624V52.1633H62.9844V55.7624C62.9844 57.8657 61.2793 59.571 59.1758 59.571Z" fill="#6B8997"/>
<path d="M59.1758 57.2859H3.82422C1.72073 57.2859 0.015625 55.5808 0.015625 53.4773V55.7624C0.015625 57.8659 1.72073 59.571 3.82422 59.571H59.1758C61.2793 59.571 62.9844 57.8659 62.9844 55.7624V53.4773C62.9844 55.5806 61.2793 57.2859 59.1758 57.2859Z" fill="#9CB0B9"/>
<path d="M41.4447 6.70999L0.015625 48.1392H6.20065L47.6298 6.70999C45.9219 5.00209 43.1528 5.00209 41.4447 6.70999Z" fill="#6B8997"/>
<path d="M3.06396 48.1392H6.2006L47.6297 6.70999C47.0671 6.14733 46.389 5.7713 45.672 5.57935L3.06396 48.1392Z" fill="#9CB0B9"/>
<path d="M0.015625 48.1393H6.20065V52.1633H0.015625V48.1393Z" fill="#083A51"/>
<path d="M0.015625 49.878H6.20065V52.1632H0.015625V49.878Z" fill="#396174"/>
<path d="M11.1421 48.1393H59.684V52.1633H11.1421V48.1393Z" fill="#42C5CA"/>
<path d="M11.1421 49.878H59.684V52.1632H11.1421V49.878Z" fill="#42C5CA"/>
<path d="M63.0459 51.2463H60.6934V48.1686C60.6934 47.6416 60.2663 47.2145 59.7393 47.2145H22.2813C21.7543 47.2145 21.3272 47.6416 21.3272 48.1686C21.3272 48.6956 21.7543 49.1226 22.2813 49.1226H58.7854V51.2464H12.0565V49.1226H18.4652C18.9922 49.1226 19.4193 48.6956 19.4193 48.1686C19.4193 47.6416 18.9922 47.2145 18.4652 47.2145H11.1024C10.5755 47.2145 10.1484 47.6416 10.1484 48.1686V51.2464H7.10507V48.5639L38.449 17.2199C38.8215 16.8473 38.8215 16.2433 38.449 15.8707C38.0764 15.4983 37.4724 15.4983 37.0998 15.8707L5.75594 47.2145H2.25711L42.1387 7.33295C43.2414 6.23023 44.9142 6.03714 46.2165 6.75379L39.7997 13.1705C39.4272 13.5432 39.4272 14.1472 39.7997 14.5198C40.1723 14.8922 40.7763 14.8922 41.1489 14.5198L48.3359 7.33295C48.7084 6.96021 48.7084 6.3563 48.3359 5.98369C46.2556 3.90331 42.8704 3.90306 40.7895 5.98369L-0.720576 47.4939C-0.897676 47.6717 -0.999238 47.9173 -1 48.1686V55.8066C-1 58.4368 1.1398 60.5766 3.77001 60.5766H35.1947C35.7217 60.5766 36.1488 60.1495 36.1488 59.6225C36.1488 59.0956 35.7217 58.6685 35.1947 58.6685H3.77001C2.19198 58.6685 0.907979 57.3846 0.907979 55.8065V53.1543H62.0919V55.8065C62.0919 57.3846 60.8079 58.6685 59.2299 58.6685H39.0108C38.4838 58.6685 38.0567 59.0956 38.0567 59.6225C38.0567 60.1495 38.4838 60.5766 39.0108 60.5766H59.2299C61.8601 60.5766 63.9999 58.4368 63.9999 55.8066V52.2004C64 51.6734 63.5729 51.2463 63.0459 51.2463ZM5.19709 49.1225V51.2463H0.907979V49.1225H5.19709Z" fill="#083A51"/>
<path d="M56.5259 56.8656C57.0529 56.8656 57.48 56.4385 57.48 55.9116C57.48 55.3846 57.0529 54.9575 56.5259 54.9575H53.2773C52.7503 54.9575 52.3232 55.3846 52.3232 55.9116C52.3232 56.4385 52.7503 56.8656 53.2773 56.8656H56.5259Z" fill="#083A51"/>
<path d="M48.5127 56.8656C49.0397 56.8656 49.4668 56.4385 49.4668 55.9116C49.4668 55.3846 49.0397 54.9575 48.5127 54.9575H45.2641C44.7371 54.9575 44.3101 55.3846 44.3101 55.9116C44.3101 56.4385 44.7371 56.8656 45.2641 56.8656H48.5127Z" fill="#083A51"/>
</svg>
