<svg width="45" height="45" viewBox="0 0 45 45" fill="none" xmlns="http://www.w3.org/2000/svg">
<path d="M35.6593 28.9099C33.0708 28.9099 30.7627 30.1433 29.2862 32.0494L16.9232 25.1443C17.2129 24.3127 17.3717 23.4157 17.3717 22.4907C17.3717 21.5563 17.2129 20.6686 16.9139 19.8277L29.2675 12.9319C30.7346 14.8474 33.0521 16.0901 35.6499 16.0901C40.0793 16.0901 43.6957 12.4834 43.6957 8.04506C43.6957 3.60673 40.0887 0 35.6499 0C31.2112 0 27.6042 3.60673 27.6042 8.04506C27.6042 8.97944 27.763 9.87645 28.0621 10.7081L15.7177 17.6038C14.2506 15.679 11.9331 14.4456 9.33532 14.4456C4.90594 14.4456 1.28955 18.0523 1.28955 22.4907C1.28955 26.929 4.90594 30.5357 9.34466 30.5357C11.9425 30.5357 14.26 29.293 15.7364 27.3681L28.0901 34.2733C27.7911 35.1142 27.6229 36.0206 27.6229 36.9549C27.6229 41.3839 31.2299 45 35.6686 45C40.1074 45 43.7144 41.3933 43.7144 36.9549C43.7144 32.5166 40.098 28.9099 35.6593 28.9099ZM35.6593 2.53218C38.7057 2.53218 41.182 5.00831 41.182 8.0544C41.182 11.1005 38.7057 13.5766 35.6593 13.5766C32.6129 13.5766 30.1366 11.1005 30.1366 8.0544C30.1366 5.00831 32.6223 2.53218 35.6593 2.53218ZM9.34466 28.0129C6.2983 28.0129 3.82196 25.5368 3.82196 22.4907C3.82196 19.4446 6.2983 16.9684 9.34466 16.9684C12.391 16.9684 14.8674 19.4446 14.8674 22.4907C14.8674 25.5368 12.3817 28.0129 9.34466 28.0129ZM35.6593 42.4678C32.6129 42.4678 30.1366 39.9917 30.1366 36.9456C30.1366 33.8995 32.6129 31.4234 35.6593 31.4234C38.7057 31.4234 41.182 33.8995 41.182 36.9456C41.182 39.9917 38.7057 42.4678 35.6593 42.4678Z" fill="#083A51"/>
<ellipse cx="35.3572" cy="8.35715" rx="5.78571" ry="5.78571" fill="#42C5CA"/>
</svg>
